<mxfile host="app.diagrams.net" agent="Mozilla/5.0 (Windows NT 10.0; Win64; x64) AppleWebKit/537.36 (KHTML, like Gecko) Chrome/140.0.0.0 Safari/537.36" version="28.2.1">
  <diagram name="第 1 页" id="umrIpPI_rZNtFiKTd7qA">
    <mxGraphModel dx="2253" dy="751" grid="1" gridSize="10" guides="1" tooltips="1" connect="1" arrows="1" fold="1" page="1" pageScale="1" pageWidth="827" pageHeight="1169" math="0" shadow="0">
      <root>
        <mxCell id="0" />
        <mxCell id="1" parent="0" />
        <mxCell id="yu3B8ISFJLg7ts8vIUwh-4" style="edgeStyle=orthogonalEdgeStyle;rounded=0;orthogonalLoop=1;jettySize=auto;html=1;" edge="1" parent="1" source="yu3B8ISFJLg7ts8vIUwh-1">
          <mxGeometry relative="1" as="geometry">
            <mxPoint x="220" y="270" as="targetPoint" />
          </mxGeometry>
        </mxCell>
        <mxCell id="yu3B8ISFJLg7ts8vIUwh-1" value="入口队列&lt;br&gt;trade_tweet_queue&lt;br&gt;（推文消息）" style="rounded=0;whiteSpace=wrap;html=1;" vertex="1" parent="1">
          <mxGeometry x="160" y="140" width="120" height="60" as="geometry" />
        </mxCell>
        <mxCell id="yu3B8ISFJLg7ts8vIUwh-3" value="Rabbitmq连接：amqp://scwl:B6!hY4*Tw1*Km8@14.103.179.138:25911" style="text;html=1;align=center;verticalAlign=middle;whiteSpace=wrap;rounded=0;" vertex="1" parent="1">
          <mxGeometry x="-290" y="70" width="350" height="30" as="geometry" />
        </mxCell>
        <mxCell id="yu3B8ISFJLg7ts8vIUwh-6" style="edgeStyle=orthogonalEdgeStyle;rounded=0;orthogonalLoop=1;jettySize=auto;html=1;" edge="1" parent="1" source="yu3B8ISFJLg7ts8vIUwh-5">
          <mxGeometry relative="1" as="geometry">
            <mxPoint x="220" y="400" as="targetPoint" />
          </mxGeometry>
        </mxCell>
        <mxCell id="yu3B8ISFJLg7ts8vIUwh-5" value="解析推文消息" style="rounded=0;whiteSpace=wrap;html=1;" vertex="1" parent="1">
          <mxGeometry x="160" y="270" width="120" height="60" as="geometry" />
        </mxCell>
        <mxCell id="yu3B8ISFJLg7ts8vIUwh-8" value="解析出有关用户的字段：&lt;span style=&quot;color: rgb(146, 39, 143); font-family: &amp;quot;Public Sans&amp;quot;, -apple-system, BlinkMacSystemFont, &amp;quot;Segoe UI&amp;quot;, Oxygen, Ubuntu, Cantarell, &amp;quot;Fira Sans&amp;quot;, &amp;quot;Droid Sans&amp;quot;, &amp;quot;Helvetica Neue&amp;quot;, sans-serif; font-size: 15px; font-weight: 700; text-align: start; white-space-collapse: preserve-breaks; background-color: rgb(255, 255, 255);&quot;&gt;username、&lt;/span&gt;&lt;span style=&quot;color: rgb(146, 39, 143); font-family: &amp;quot;Public Sans&amp;quot;, -apple-system, BlinkMacSystemFont, &amp;quot;Segoe UI&amp;quot;, Oxygen, Ubuntu, Cantarell, &amp;quot;Fira Sans&amp;quot;, &amp;quot;Droid Sans&amp;quot;, &amp;quot;Helvetica Neue&amp;quot;, sans-serif; font-size: 15px; font-weight: 700; text-align: start; white-space-collapse: preserve-breaks; background-color: rgb(255, 255, 255);&quot;&gt;followers、&lt;/span&gt;&lt;span style=&quot;color: rgb(146, 39, 143); font-family: &amp;quot;Public Sans&amp;quot;, -apple-system, BlinkMacSystemFont, &amp;quot;Segoe UI&amp;quot;, Oxygen, Ubuntu, Cantarell, &amp;quot;Fira Sans&amp;quot;, &amp;quot;Droid Sans&amp;quot;, &amp;quot;Helvetica Neue&amp;quot;, sans-serif; font-size: 15px; font-weight: 700; text-align: start; white-space-collapse: preserve-breaks; background-color: rgb(255, 255, 255);&quot;&gt;registration_time、&lt;/span&gt;&lt;span style=&quot;color: rgb(146, 39, 143); font-family: &amp;quot;Public Sans&amp;quot;, -apple-system, BlinkMacSystemFont, &amp;quot;Segoe UI&amp;quot;, Oxygen, Ubuntu, Cantarell, &amp;quot;Fira Sans&amp;quot;, &amp;quot;Droid Sans&amp;quot;, &amp;quot;Helvetica Neue&amp;quot;, sans-serif; font-size: 15px; font-weight: 700; text-align: start; white-space-collapse: preserve-breaks; background-color: rgb(255, 255, 255);&quot;&gt;listed_count、&lt;/span&gt;&lt;span style=&quot;background-color: light-dark(rgb(255, 255, 255), rgb(18, 18, 18)); color: light-dark(rgb(146, 39, 143), rgb(244, 152, 242)); font-family: &amp;quot;Public Sans&amp;quot;, -apple-system, BlinkMacSystemFont, &amp;quot;Segoe UI&amp;quot;, Oxygen, Ubuntu, Cantarell, &amp;quot;Fira Sans&amp;quot;, &amp;quot;Droid Sans&amp;quot;, &amp;quot;Helvetica Neue&amp;quot;, sans-serif; font-size: 15px; font-weight: 700; white-space-collapse: preserve-breaks; text-align: start;&quot;&gt;statuses_count、&lt;/span&gt;&lt;span style=&quot;background-color: light-dark(rgb(255, 255, 255), rgb(18, 18, 18)); color: light-dark(rgb(146, 39, 143), rgb(244, 152, 242)); font-family: &amp;quot;Public Sans&amp;quot;, -apple-system, BlinkMacSystemFont, &amp;quot;Segoe UI&amp;quot;, Oxygen, Ubuntu, Cantarell, &amp;quot;Fira Sans&amp;quot;, &amp;quot;Droid Sans&amp;quot;, &amp;quot;Helvetica Neue&amp;quot;, sans-serif; font-size: 15px; font-weight: 700; white-space-collapse: preserve-breaks; text-align: start;&quot;&gt;verified&lt;/span&gt;&lt;div&gt;解析出有关推文的字段:&lt;span style=&quot;background-color: rgb(255, 255, 255); color: rgb(146, 39, 143); font-family: &amp;quot;Public Sans&amp;quot;, -apple-system, BlinkMacSystemFont, &amp;quot;Segoe UI&amp;quot;, Oxygen, Ubuntu, Cantarell, &amp;quot;Fira Sans&amp;quot;, &amp;quot;Droid Sans&amp;quot;, &amp;quot;Helvetica Neue&amp;quot;, sans-serif; font-size: 15px; font-weight: 700; text-align: start; white-space-collapse: preserve-breaks;&quot;&gt;tweet_id、&lt;/span&gt;&lt;span style=&quot;background-color: rgb(255, 255, 255); color: rgb(146, 39, 143); font-family: &amp;quot;Public Sans&amp;quot;, -apple-system, BlinkMacSystemFont, &amp;quot;Segoe UI&amp;quot;, Oxygen, Ubuntu, Cantarell, &amp;quot;Fira Sans&amp;quot;, &amp;quot;Droid Sans&amp;quot;, &amp;quot;Helvetica Neue&amp;quot;, sans-serif; font-size: 15px; font-weight: 700; text-align: start; white-space-collapse: preserve-breaks;&quot;&gt;rest_id&lt;/span&gt;&lt;/div&gt;" style="rounded=0;whiteSpace=wrap;html=1;" vertex="1" parent="1">
          <mxGeometry x="35" y="370" width="785" height="150" as="geometry" />
        </mxCell>
      </root>
    </mxGraphModel>
  </diagram>
</mxfile>
